<svg xmlns="http://www.w3.org/2000/svg" xmlns:xlink="http://www.w3.org/1999/xlink" width="750" height="342.23"><rect width="750" height="342.23" rx="5" ry="5" class="a"/><svg y="0%" x="0%"><circle cx="20" cy="20" r="6" fill="#ff5f58"/><circle cx="40" cy="20" r="6" fill="#ffbd2e"/><circle cx="60" cy="20" r="6" fill="#18c132"/></svg><svg height="282.23" viewBox="0 0 71 28.223" width="710" x="15" xmlns="http://www.w3.org/2000/svg" xmlns:xlink="http://www.w3.org/1999/xlink" y="50"><style>@keyframes m{0%{transform:translateX(0)}.3%{transform:translateX(-71px)}.8%{transform:translateX(-142px)}1.1%{transform:translateX(-426px)}1.6%{transform:translateX(-497px)}2.3%{transform:translateX(-639px)}3.5%{transform:translateX(-710px)}4.8%{transform:translateX(-781px)}6%{transform:translateX(-852px)}7.2%{transform:translateX(-923px)}8.5%{transform:translateX(-994px)}9.8%{transform:translateX(-1065px)}11%{transform:translateX(-1136px)}12.3%{transform:translateX(-1207px)}13.6%{transform:translateX(-1278px)}14.8%{transform:translateX(-1349px)}15%{transform:translateX(-1420px)}16.1%{transform:translateX(-1491px)}17.3%{transform:translateX(-1562px)}18.6%{transform:translateX(-1633px)}19.9%{transform:translateX(-1704px)}21.1%{transform:translateX(-1775px)}22.4%{transform:translateX(-1846px)}23.6%{transform:translateX(-1917px)}24.8%{transform:translateX(-1988px)}26.1%{transform:translateX(-2059px)}27.4%{transform:translateX(-2130px)}28.6%{transform:translateX(-2201px)}29.9%{transform:translateX(-2272px)}31.2%{transform:translateX(-2343px)}32.4%{transform:translateX(-2414px)}33.7%{transform:translateX(-2485px)}34.9%{transform:translateX(-2556px)}36.2%{transform:translateX(-2627px)}37.4%{transform:translateX(-2698px)}38.7%{transform:translateX(-2769px)}39.9%{transform:translateX(-2840px)}41.2%{transform:translateX(-2911px)}42.4%{transform:translateX(-2982px)}43.7%{transform:translateX(-3053px)}45%{transform:translateX(-3124px)}46.2%{transform:translateX(-3195px)}47.5%{transform:translateX(-3266px)}48.8%{transform:translateX(-3337px)}50%{transform:translateX(-3408px)}51.3%{transform:translateX(-3479px)}52.6%{transform:translateX(-3550px)}53.8%{transform:translateX(-3621px)}55%{transform:translateX(-3905px)}56.3%{transform:translateX(-3976px)}57.5%{transform:translateX(-4047px)}58.5%{transform:translateX(-4118px)}58.8%{transform:translateX(-4189px)}60%{transform:translateX(-4260px)}61.3%{transform:translateX(-4331px)}62.5%{transform:translateX(-4402px)}63.8%{transform:translateX(-4473px)}65%{transform:translateX(-4544px)}66.3%{transform:translateX(-4615px)}67.5%{transform:translateX(-4686px)}68.8%{transform:translateX(-4757px)}70.1%{transform:translateX(-4828px)}71.3%{transform:translateX(-4899px)}72%{transform:translateX(-4970px)}72.6%{transform:translateX(-5041px)}73.8%{transform:translateX(-5112px)}75%{transform:translateX(-5183px)}76.3%{transform:translateX(-5254px)}77.5%{transform:translateX(-5325px)}78.7%{transform:translateX(-5396px)}80%{transform:translateX(-5467px)}81.2%{transform:translateX(-5538px)}82.4%{transform:translateX(-5609px)}83.7%{transform:translateX(-5680px)}84.9%{transform:translateX(-5751px)}86.2%{transform:translateX(-5822px)}87.4%{transform:translateX(-5893px)}88.7%{transform:translateX(-5964px)}89.9%{transform:translateX(-6035px)}91.2%{transform:translateX(-6106px)}92.4%{transform:translateX(-6177px)}93.7%{transform:translateX(-6248px)}95%{transform:translateX(-6319px)}96.2%{transform:translateX(-6390px)}97.5%{transform:translateX(-6461px)}98.8%{transform:translateX(-6532px)}to{transform:translateX(-6603px)}}.a{fill:#282d35}.f{fill:#dbab79}.g{fill:#a8cc8c}.h{fill:#b9c0cb}.i{fill:red}.j{fill:#e88388}.o{fill:#ff5f00}.p{fill:#ff8700}.q{fill:#ffaf00}.r{fill:gold}.s{fill:#ff0}.t{fill:#d7ff00}.u{fill:#afff00}.v{fill:#87ff00}.w{fill:#5fff00}.x{fill:#0f0}.y{fill:#00ff5f}.z{fill:#00ff87}.A{fill:#00ffaf}.B{fill:#00ffd7}.C{fill:#0ff}.D{fill:#00d7ff}.E{fill:#00afff}.F{fill:#0087ff}.G{fill:#005fff}.H{fill:#5f00d7}.I{fill:#5f00ff}.J{fill:#8700ff}.K{fill:#af00ff}.L{fill:#d700ff}.M{fill:#f0f}.N{fill:#ff00d7}.O{fill:#ff00af}.P{fill:#ff0087}.Q{fill:#ff005f}</style><g font-size="1.67" font-family="Monaco,Consolas,Menlo,'Bitstream Vera Sans Mono','Powerline Symbols',monospace"><defs><symbol id="1"><text y="1.67" class="f">[PHP-Watcher]</text><text x="14.028" y="1.67" class="f">0.4.3</text></symbol><symbol id="2"><text y="1.67" class="f">[PHP-Watcher]</text><text x="14.028" y="1.67" class="f">watching:</text><text x="24.048" y="1.67" class="f">/Users/serega/Develop/my/php-watcher</text></symbol><symbol id="3"><text y="1.67" class="g">[PHP-Watcher]</text><text x="14.028" y="1.67" class="g">starting</text><text x="23.046" y="1.67" class="g">`php</text><text x="28.056" y="1.67" class="g">server.php`</text></symbol><symbol id="4"><text y="1.67" class="h">Listening</text><text x="10.02" y="1.67" class="h">on</text><text x="13.026" y="1.67" class="h">http://0.0.0.0:8080</text></symbol><symbol id="5"><text y="1.67" class="i">⠏</text></symbol><symbol id="6"><text y="1.67" class="j">[PHP-Watcher]</text><text x="14.028" y="1.67" class="j">app</text><text x="18.036" y="1.67" class="j">crashed</text><text x="26.052" y="1.67" class="j">-</text><text x="28.056" y="1.67" class="j">waiting</text><text x="36.072" y="1.67" class="j">for</text><text x="40.08" y="1.67" class="j">file</text><text x="45.09" y="1.67" class="j">changes</text><text x="53.106" y="1.67" class="j">before</text><text x="60.12" y="1.67" class="j">starting...</text></symbol><symbol id="7"><text y="1.67" class="g">[PHP-Watcher]</text><text x="14.028" y="1.67" class="g">restarting</text><text x="25.05" y="1.67" class="g">due</text><text x="29.058" y="1.67" class="g">to</text><text x="32.064" y="1.67" class="g">changes...</text></symbol><symbol id="8"><text y="1.67" class="g">[PHP-Watcher]</text><text x="14.028" y="1.67" class="g">clean</text><text x="20.04" y="1.67" class="g">exit</text><text x="25.05" y="1.67" class="g">-</text><text x="27.054" y="1.67" class="g">waiting</text><text x="35.07" y="1.67" class="g">for</text><text x="39.078" y="1.67" class="g">changes</text><text x="47.094" y="1.67" class="g">before</text><text x="54.108" y="1.67" class="g">restart</text></symbol><symbol id="a"><path fill="transparent" d="M0 0h71v14H0z"/></symbol><symbol id="b"><path fill="#6f7683" d="M0 0h1.102v2.171H0z"/></symbol></defs><path class="a" d="M0 0h71v28.223H0z"/><g style="animation-duration:8.239135s;animation-iteration-count:infinite;animation-name:m;animation-timing-function:steps(1,end)"><svg width="6674"><svg><use xlink:href="#a"/><use xlink:href="#b" x="-.004"/></svg><svg x="71"><use xlink:href="#a"/><use xlink:href="#b" x="-.004"/></svg><svg x="142"><use xlink:href="#a"/><use xlink:href="#b" x="-.004" y="2.146"/></svg><svg x="213"><use xlink:href="#a"/><use xlink:href="#b" x="-.004" y="4.317"/><use xlink:href="#1" y="2.171"/></svg><svg x="284"><use xlink:href="#a"/><use xlink:href="#b" x="-.004" y="6.488"/><use xlink:href="#1" y="2.171"/><use xlink:href="#2" y="4.342"/></svg><svg x="355"><use xlink:href="#a"/><use xlink:href="#b" x="-.004" y="8.659"/><use xlink:href="#1" y="2.171"/><use xlink:href="#2" y="4.342"/><use xlink:href="#3" y="6.513"/></svg><svg x="426"><use xlink:href="#a"/><use xlink:href="#1" y="2.171"/><use xlink:href="#2" y="4.342"/><use xlink:href="#3" y="6.513"/></svg><svg x="497"><use xlink:href="#a"/><use xlink:href="#1" y="2.171"/><use xlink:href="#2" y="4.342"/><use xlink:href="#3" y="6.513"/><use xlink:href="#4" y="8.684"/></svg><svg x="568"><use xlink:href="#a"/><use xlink:href="#1" y="2.171"/><use xlink:href="#2" y="4.342"/><use xlink:href="#3" y="6.513"/><use xlink:href="#4" y="8.684"/><use xlink:href="#5" y="10.855"/></svg><svg x="639"><use xlink:href="#a"/><use xlink:href="#1" y="2.171"/><use xlink:href="#2" y="4.342"/><use xlink:href="#3" y="6.513"/><use xlink:href="#4" y="8.684"/><use xlink:href="#5" y="10.855"/></svg><svg x="710"><use xlink:href="#a"/><use xlink:href="#1" y="2.171"/><use xlink:href="#2" y="4.342"/><use xlink:href="#3" y="6.513"/><use xlink:href="#4" y="8.684"/><text y="12.525" class="i">⠛</text></svg><svg x="781"><use xlink:href="#a"/><use xlink:href="#1" y="2.171"/><use xlink:href="#2" y="4.342"/><use xlink:href="#3" y="6.513"/><use xlink:href="#4" y="8.684"/><text y="12.525" class="o">⠹</text></svg><svg x="852"><use xlink:href="#a"/><use xlink:href="#1" y="2.171"/><use xlink:href="#2" y="4.342"/><use xlink:href="#3" y="6.513"/><use xlink:href="#4" y="8.684"/><text y="12.525" class="o">⢸</text></svg><svg x="923"><use xlink:href="#a"/><use xlink:href="#1" y="2.171"/><use xlink:href="#2" y="4.342"/><use xlink:href="#3" y="6.513"/><use xlink:href="#4" y="8.684"/><text y="12.525" class="p">⣰</text></svg><svg x="994"><use xlink:href="#a"/><use xlink:href="#1" y="2.171"/><use xlink:href="#2" y="4.342"/><use xlink:href="#3" y="6.513"/><use xlink:href="#4" y="8.684"/><text y="12.525" class="p">⣤</text></svg><svg x="1065"><use xlink:href="#a"/><use xlink:href="#1" y="2.171"/><use xlink:href="#2" y="4.342"/><use xlink:href="#3" y="6.513"/><use xlink:href="#4" y="8.684"/><text y="12.525" class="q">⣆</text></svg><svg x="1136"><use xlink:href="#a"/><use xlink:href="#1" y="2.171"/><use xlink:href="#2" y="4.342"/><use xlink:href="#3" y="6.513"/><use xlink:href="#4" y="8.684"/><text y="12.525" class="q">⡇</text></svg><svg x="1207"><use xlink:href="#a"/><use xlink:href="#1" y="2.171"/><use xlink:href="#2" y="4.342"/><use xlink:href="#3" y="6.513"/><use xlink:href="#4" y="8.684"/><text y="12.525" class="r">⠏</text></svg><svg x="1278"><use xlink:href="#a"/><use xlink:href="#1" y="2.171"/><use xlink:href="#2" y="4.342"/><use xlink:href="#3" y="6.513"/><use xlink:href="#4" y="8.684"/><text y="12.525" class="r">⠛</text></svg><svg x="1349"><use xlink:href="#a"/><use xlink:href="#1" y="2.171"/><use xlink:href="#2" y="4.342"/><use xlink:href="#3" y="6.513"/><use xlink:href="#4" y="8.684"/><text y="12.525" class="s">⠹</text></svg><svg x="1420"><use xlink:href="#a"/><use xlink:href="#1" y="2.171"/><use xlink:href="#2" y="4.342"/><use xlink:href="#3" y="6.513"/><use xlink:href="#4" y="8.684"/><use xlink:href="#6" y="10.855"/></svg><svg x="1491"><use xlink:href="#a"/><use xlink:href="#1" y="2.171"/><use xlink:href="#2" y="4.342"/><use xlink:href="#3" y="6.513"/><use xlink:href="#4" y="8.684"/><use xlink:href="#6" y="10.855"/><text y="14.696" class="s">⢸</text></svg><svg x="1562"><use xlink:href="#a"/><use xlink:href="#1" y="2.171"/><use xlink:href="#2" y="4.342"/><use xlink:href="#3" y="6.513"/><use xlink:href="#4" y="8.684"/><use xlink:href="#6" y="10.855"/><text y="14.696" class="t">⣰</text></svg><svg x="1633"><use xlink:href="#a"/><use xlink:href="#1" y="2.171"/><use xlink:href="#2" y="4.342"/><use xlink:href="#3" y="6.513"/><use xlink:href="#4" y="8.684"/><use xlink:href="#6" y="10.855"/><text y="14.696" class="t">⣤</text></svg><svg x="1704"><use xlink:href="#a"/><use xlink:href="#1" y="2.171"/><use xlink:href="#2" y="4.342"/><use xlink:href="#3" y="6.513"/><use xlink:href="#4" y="8.684"/><use xlink:href="#6" y="10.855"/><text y="14.696" class="u">⣆</text></svg><svg x="1775"><use xlink:href="#a"/><use xlink:href="#1" y="2.171"/><use xlink:href="#2" y="4.342"/><use xlink:href="#3" y="6.513"/><use xlink:href="#4" y="8.684"/><use xlink:href="#6" y="10.855"/><text y="14.696" class="u">⡇</text></svg><svg x="1846"><use xlink:href="#a"/><use xlink:href="#1" y="2.171"/><use xlink:href="#2" y="4.342"/><use xlink:href="#3" y="6.513"/><use xlink:href="#4" y="8.684"/><use xlink:href="#6" y="10.855"/><text y="14.696" class="v">⠏</text></svg><svg x="1917"><use xlink:href="#a"/><use xlink:href="#1" y="2.171"/><use xlink:href="#2" y="4.342"/><use xlink:href="#3" y="6.513"/><use xlink:href="#4" y="8.684"/><use xlink:href="#6" y="10.855"/><text y="14.696" class="v">⠛</text></svg><svg x="1988"><use xlink:href="#a"/><use xlink:href="#1" y="2.171"/><use xlink:href="#2" y="4.342"/><use xlink:href="#3" y="6.513"/><use xlink:href="#4" y="8.684"/><use xlink:href="#6" y="10.855"/><text y="14.696" class="w">⠹</text></svg><svg x="2059"><use xlink:href="#a"/><use xlink:href="#1" y="2.171"/><use xlink:href="#2" y="4.342"/><use xlink:href="#3" y="6.513"/><use xlink:href="#4" y="8.684"/><use xlink:href="#6" y="10.855"/><text y="14.696" class="w">⢸</text></svg><svg x="2130"><use xlink:href="#a"/><use xlink:href="#1" y="2.171"/><use xlink:href="#2" y="4.342"/><use xlink:href="#3" y="6.513"/><use xlink:href="#4" y="8.684"/><use xlink:href="#6" y="10.855"/><text y="14.696" class="x">⣰</text></svg><svg x="2201"><use xlink:href="#a"/><use xlink:href="#1" y="2.171"/><use xlink:href="#2" y="4.342"/><use xlink:href="#3" y="6.513"/><use xlink:href="#4" y="8.684"/><use xlink:href="#6" y="10.855"/><text y="14.696" class="x">⣤</text></svg><svg x="2272"><use xlink:href="#a"/><use xlink:href="#1" y="2.171"/><use xlink:href="#2" y="4.342"/><use xlink:href="#3" y="6.513"/><use xlink:href="#4" y="8.684"/><use xlink:href="#6" y="10.855"/><text y="14.696" class="y">⣆</text></svg><svg x="2343"><use xlink:href="#a"/><use xlink:href="#1" y="2.171"/><use xlink:href="#2" y="4.342"/><use xlink:href="#3" y="6.513"/><use xlink:href="#4" y="8.684"/><use xlink:href="#6" y="10.855"/><text y="14.696" class="y">⡇</text></svg><svg x="2414"><use xlink:href="#a"/><use xlink:href="#1" y="2.171"/><use xlink:href="#2" y="4.342"/><use xlink:href="#3" y="6.513"/><use xlink:href="#4" y="8.684"/><use xlink:href="#6" y="10.855"/><text y="14.696" class="z">⠏</text></svg><svg x="2485"><use xlink:href="#a"/><use xlink:href="#1" y="2.171"/><use xlink:href="#2" y="4.342"/><use xlink:href="#3" y="6.513"/><use xlink:href="#4" y="8.684"/><use xlink:href="#6" y="10.855"/><text y="14.696" class="z">⠛</text></svg><svg x="2556"><use xlink:href="#a"/><use xlink:href="#1" y="2.171"/><use xlink:href="#2" y="4.342"/><use xlink:href="#3" y="6.513"/><use xlink:href="#4" y="8.684"/><use xlink:href="#6" y="10.855"/><text y="14.696" class="A">⠹</text></svg><svg x="2627"><use xlink:href="#a"/><use xlink:href="#1" y="2.171"/><use xlink:href="#2" y="4.342"/><use xlink:href="#3" y="6.513"/><use xlink:href="#4" y="8.684"/><use xlink:href="#6" y="10.855"/><text y="14.696" class="A">⢸</text></svg><svg x="2698"><use xlink:href="#a"/><use xlink:href="#1" y="2.171"/><use xlink:href="#2" y="4.342"/><use xlink:href="#3" y="6.513"/><use xlink:href="#4" y="8.684"/><use xlink:href="#6" y="10.855"/><text y="14.696" class="B">⣰</text></svg><svg x="2769"><use xlink:href="#a"/><use xlink:href="#1" y="2.171"/><use xlink:href="#2" y="4.342"/><use xlink:href="#3" y="6.513"/><use xlink:href="#4" y="8.684"/><use xlink:href="#6" y="10.855"/><text y="14.696" class="B">⣤</text></svg><svg x="2840"><use xlink:href="#a"/><use xlink:href="#1" y="2.171"/><use xlink:href="#2" y="4.342"/><use xlink:href="#3" y="6.513"/><use xlink:href="#4" y="8.684"/><use xlink:href="#6" y="10.855"/><text y="14.696" class="C">⣆</text></svg><svg x="2911"><use xlink:href="#a"/><use xlink:href="#1" y="2.171"/><use xlink:href="#2" y="4.342"/><use xlink:href="#3" y="6.513"/><use xlink:href="#4" y="8.684"/><use xlink:href="#6" y="10.855"/><text y="14.696" class="C">⡇</text></svg><svg x="2982"><use xlink:href="#a"/><use xlink:href="#1" y="2.171"/><use xlink:href="#2" y="4.342"/><use xlink:href="#3" y="6.513"/><use xlink:href="#4" y="8.684"/><use xlink:href="#6" y="10.855"/><text y="14.696" class="D">⠏</text></svg><svg x="3053"><use xlink:href="#a"/><use xlink:href="#1" y="2.171"/><use xlink:href="#2" y="4.342"/><use xlink:href="#3" y="6.513"/><use xlink:href="#4" y="8.684"/><use xlink:href="#6" y="10.855"/><text y="14.696" class="D">⠛</text></svg><svg x="3124"><use xlink:href="#a"/><use xlink:href="#1" y="2.171"/><use xlink:href="#2" y="4.342"/><use xlink:href="#3" y="6.513"/><use xlink:href="#4" y="8.684"/><use xlink:href="#6" y="10.855"/><text y="14.696" class="E">⠹</text></svg><svg x="3195"><use xlink:href="#a"/><use xlink:href="#1" y="2.171"/><use xlink:href="#2" y="4.342"/><use xlink:href="#3" y="6.513"/><use xlink:href="#4" y="8.684"/><use xlink:href="#6" y="10.855"/><text y="14.696" class="E">⢸</text></svg><svg x="3266"><use xlink:href="#a"/><use xlink:href="#1" y="2.171"/><use xlink:href="#2" y="4.342"/><use xlink:href="#3" y="6.513"/><use xlink:href="#4" y="8.684"/><use xlink:href="#6" y="10.855"/><text y="14.696" class="F">⣰</text></svg><svg x="3337"><use xlink:href="#a"/><use xlink:href="#1" y="2.171"/><use xlink:href="#2" y="4.342"/><use xlink:href="#3" y="6.513"/><use xlink:href="#4" y="8.684"/><use xlink:href="#6" y="10.855"/><text y="14.696" class="F">⣤</text></svg><svg x="3408"><use xlink:href="#a"/><use xlink:href="#1" y="2.171"/><use xlink:href="#2" y="4.342"/><use xlink:href="#3" y="6.513"/><use xlink:href="#4" y="8.684"/><use xlink:href="#6" y="10.855"/><text y="14.696" class="G">⣆</text></svg><svg x="3479"><use xlink:href="#a"/><use xlink:href="#1" y="2.171"/><use xlink:href="#2" y="4.342"/><use xlink:href="#3" y="6.513"/><use xlink:href="#4" y="8.684"/><use xlink:href="#6" y="10.855"/><text y="14.696" class="G">⡇</text></svg><svg x="3550"><use xlink:href="#a"/><use xlink:href="#1" y="2.171"/><use xlink:href="#2" y="4.342"/><use xlink:href="#3" y="6.513"/><use xlink:href="#4" y="8.684"/><use xlink:href="#6" y="10.855"/><text y="14.696" class="H">⠏</text></svg><svg x="3621"><use xlink:href="#a"/><use xlink:href="#1" y="2.171"/><use xlink:href="#2" y="4.342"/><use xlink:href="#3" y="6.513"/><use xlink:href="#4" y="8.684"/><use xlink:href="#6" y="10.855"/><text y="14.696" class="H">⠛</text></svg><svg x="3692"><use xlink:href="#a"/><use xlink:href="#1" y="2.171"/><use xlink:href="#2" y="4.342"/><use xlink:href="#3" y="6.513"/><use xlink:href="#4" y="8.684"/><use xlink:href="#6" y="10.855"/></svg><svg x="3763"><use xlink:href="#a"/><use xlink:href="#1" y="2.171"/><use xlink:href="#2" y="4.342"/><use xlink:href="#3" y="6.513"/><use xlink:href="#4" y="8.684"/><use xlink:href="#6" y="10.855"/><use xlink:href="#7" y="15.197"/></svg><svg x="3834"><use xlink:href="#a"/><use xlink:href="#1" y="2.171"/><use xlink:href="#2" y="4.342"/><use xlink:href="#3" y="6.513"/><use xlink:href="#4" y="8.684"/><use xlink:href="#6" y="10.855"/><use xlink:href="#7" y="15.197"/><use xlink:href="#3" y="17.368"/></svg><svg x="3905"><use xlink:href="#a"/><use xlink:href="#1" y="2.171"/><use xlink:href="#2" y="4.342"/><use xlink:href="#3" y="6.513"/><use xlink:href="#4" y="8.684"/><use xlink:href="#6" y="10.855"/><use xlink:href="#7" y="15.197"/><use xlink:href="#3" y="17.368"/><text y="21.209" class="I">⠹</text></svg><svg x="3976"><use xlink:href="#a"/><use xlink:href="#1" y="2.171"/><use xlink:href="#2" y="4.342"/><use xlink:href="#3" y="6.513"/><use xlink:href="#4" y="8.684"/><use xlink:href="#6" y="10.855"/><use xlink:href="#7" y="15.197"/><use xlink:href="#3" y="17.368"/><text y="21.209" class="I">⢸</text></svg><svg x="4047"><use xlink:href="#a"/><use xlink:href="#1" y="2.171"/><use xlink:href="#2" y="4.342"/><use xlink:href="#3" y="6.513"/><use xlink:href="#4" y="8.684"/><use xlink:href="#6" y="10.855"/><use xlink:href="#7" y="15.197"/><use xlink:href="#3" y="17.368"/><text y="21.209" class="J">⣰</text></svg><svg x="4118"><use xlink:href="#a"/><use xlink:href="#1" y="2.171"/><use xlink:href="#2" y="4.342"/><use xlink:href="#3" y="6.513"/><use xlink:href="#4" y="8.684"/><use xlink:href="#6" y="10.855"/><use xlink:href="#7" y="15.197"/><use xlink:href="#3" y="17.368"/><use xlink:href="#4" y="19.539"/></svg><svg x="4189"><use xlink:href="#a"/><use xlink:href="#1" y="2.171"/><use xlink:href="#2" y="4.342"/><use xlink:href="#3" y="6.513"/><use xlink:href="#4" y="8.684"/><use xlink:href="#6" y="10.855"/><use xlink:href="#7" y="15.197"/><use xlink:href="#3" y="17.368"/><use xlink:href="#4" y="19.539"/><text y="23.38" class="J">⣤</text></svg><svg x="4260"><use xlink:href="#a"/><use xlink:href="#1" y="2.171"/><use xlink:href="#2" y="4.342"/><use xlink:href="#3" y="6.513"/><use xlink:href="#4" y="8.684"/><use xlink:href="#6" y="10.855"/><use xlink:href="#7" y="15.197"/><use xlink:href="#3" y="17.368"/><use xlink:href="#4" y="19.539"/><text y="23.38" class="K">⣆</text></svg><svg x="4331"><use xlink:href="#a"/><use xlink:href="#1" y="2.171"/><use xlink:href="#2" y="4.342"/><use xlink:href="#3" y="6.513"/><use xlink:href="#4" y="8.684"/><use xlink:href="#6" y="10.855"/><use xlink:href="#7" y="15.197"/><use xlink:href="#3" y="17.368"/><use xlink:href="#4" y="19.539"/><text y="23.38" class="K">⡇</text></svg><svg x="4402"><use xlink:href="#a"/><use xlink:href="#1" y="2.171"/><use xlink:href="#2" y="4.342"/><use xlink:href="#3" y="6.513"/><use xlink:href="#4" y="8.684"/><use xlink:href="#6" y="10.855"/><use xlink:href="#7" y="15.197"/><use xlink:href="#3" y="17.368"/><use xlink:href="#4" y="19.539"/><text y="23.38" class="L">⠏</text></svg><svg x="4473"><use xlink:href="#a"/><use xlink:href="#1" y="2.171"/><use xlink:href="#2" y="4.342"/><use xlink:href="#3" y="6.513"/><use xlink:href="#4" y="8.684"/><use xlink:href="#6" y="10.855"/><use xlink:href="#7" y="15.197"/><use xlink:href="#3" y="17.368"/><use xlink:href="#4" y="19.539"/><text y="23.38" class="L">⠛</text></svg><svg x="4544"><use xlink:href="#a"/><use xlink:href="#1" y="2.171"/><use xlink:href="#2" y="4.342"/><use xlink:href="#3" y="6.513"/><use xlink:href="#4" y="8.684"/><use xlink:href="#6" y="10.855"/><use xlink:href="#7" y="15.197"/><use xlink:href="#3" y="17.368"/><use xlink:href="#4" y="19.539"/><text y="23.38" class="M">⠹</text></svg><svg x="4615"><use xlink:href="#a"/><use xlink:href="#1" y="2.171"/><use xlink:href="#2" y="4.342"/><use xlink:href="#3" y="6.513"/><use xlink:href="#4" y="8.684"/><use xlink:href="#6" y="10.855"/><use xlink:href="#7" y="15.197"/><use xlink:href="#3" y="17.368"/><use xlink:href="#4" y="19.539"/><text y="23.38" class="M">⢸</text></svg><svg x="4686"><use xlink:href="#a"/><use xlink:href="#1" y="2.171"/><use xlink:href="#2" y="4.342"/><use xlink:href="#3" y="6.513"/><use xlink:href="#4" y="8.684"/><use xlink:href="#6" y="10.855"/><use xlink:href="#7" y="15.197"/><use xlink:href="#3" y="17.368"/><use xlink:href="#4" y="19.539"/><text y="23.38" class="N">⣰</text></svg><svg x="4757"><use xlink:href="#a"/><use xlink:href="#1" y="2.171"/><use xlink:href="#2" y="4.342"/><use xlink:href="#3" y="6.513"/><use xlink:href="#4" y="8.684"/><use xlink:href="#6" y="10.855"/><use xlink:href="#7" y="15.197"/><use xlink:href="#3" y="17.368"/><use xlink:href="#4" y="19.539"/><text y="23.38" class="N">⣤</text></svg><svg x="4828"><use xlink:href="#a"/><use xlink:href="#1" y="2.171"/><use xlink:href="#2" y="4.342"/><use xlink:href="#3" y="6.513"/><use xlink:href="#4" y="8.684"/><use xlink:href="#6" y="10.855"/><use xlink:href="#7" y="15.197"/><use xlink:href="#3" y="17.368"/><use xlink:href="#4" y="19.539"/><text y="23.38" class="O">⣆</text></svg><svg x="4899"><use xlink:href="#a"/><use xlink:href="#1" y="2.171"/><use xlink:href="#2" y="4.342"/><use xlink:href="#3" y="6.513"/><use xlink:href="#4" y="8.684"/><use xlink:href="#6" y="10.855"/><use xlink:href="#7" y="15.197"/><use xlink:href="#3" y="17.368"/><use xlink:href="#4" y="19.539"/><text y="23.38" class="O">⡇</text></svg><svg x="4970"><use xlink:href="#a"/><use xlink:href="#1" y="2.171"/><use xlink:href="#2" y="4.342"/><use xlink:href="#3" y="6.513"/><use xlink:href="#4" y="8.684"/><use xlink:href="#6" y="10.855"/><use xlink:href="#7" y="15.197"/><use xlink:href="#3" y="17.368"/><use xlink:href="#4" y="19.539"/><use xlink:href="#8" y="21.71"/></svg><svg x="5041"><use xlink:href="#a"/><use xlink:href="#1" y="2.171"/><use xlink:href="#2" y="4.342"/><use xlink:href="#3" y="6.513"/><use xlink:href="#4" y="8.684"/><use xlink:href="#6" y="10.855"/><use xlink:href="#7" y="15.197"/><use xlink:href="#3" y="17.368"/><use xlink:href="#4" y="19.539"/><use xlink:href="#8" y="21.71"/><text y="25.551" class="P">⠏</text></svg><svg x="5112"><use xlink:href="#a"/><use xlink:href="#1" y="2.171"/><use xlink:href="#2" y="4.342"/><use xlink:href="#3" y="6.513"/><use xlink:href="#4" y="8.684"/><use xlink:href="#6" y="10.855"/><use xlink:href="#7" y="15.197"/><use xlink:href="#3" y="17.368"/><use xlink:href="#4" y="19.539"/><use xlink:href="#8" y="21.71"/><text y="25.551" class="P">⠛</text></svg><svg x="5183"><use xlink:href="#a"/><use xlink:href="#1" y="2.171"/><use xlink:href="#2" y="4.342"/><use xlink:href="#3" y="6.513"/><use xlink:href="#4" y="8.684"/><use xlink:href="#6" y="10.855"/><use xlink:href="#7" y="15.197"/><use xlink:href="#3" y="17.368"/><use xlink:href="#4" y="19.539"/><use xlink:href="#8" y="21.71"/><text y="25.551" class="Q">⠹</text></svg><svg x="5254"><use xlink:href="#a"/><use xlink:href="#1" y="2.171"/><use xlink:href="#2" y="4.342"/><use xlink:href="#3" y="6.513"/><use xlink:href="#4" y="8.684"/><use xlink:href="#6" y="10.855"/><use xlink:href="#7" y="15.197"/><use xlink:href="#3" y="17.368"/><use xlink:href="#4" y="19.539"/><use xlink:href="#8" y="21.71"/><text y="25.551" class="Q">⢸</text></svg><svg x="5325"><use xlink:href="#a"/><use xlink:href="#1" y="2.171"/><use xlink:href="#2" y="4.342"/><use xlink:href="#3" y="6.513"/><use xlink:href="#4" y="8.684"/><use xlink:href="#6" y="10.855"/><use xlink:href="#7" y="15.197"/><use xlink:href="#3" y="17.368"/><use xlink:href="#4" y="19.539"/><use xlink:href="#8" y="21.71"/><text y="25.551" class="i">⣰</text></svg><svg x="5396"><use xlink:href="#a"/><use xlink:href="#1" y="2.171"/><use xlink:href="#2" y="4.342"/><use xlink:href="#3" y="6.513"/><use xlink:href="#4" y="8.684"/><use xlink:href="#6" y="10.855"/><use xlink:href="#7" y="15.197"/><use xlink:href="#3" y="17.368"/><use xlink:href="#4" y="19.539"/><use xlink:href="#8" y="21.71"/><text y="25.551" class="i">⣤</text></svg><svg x="5467"><use xlink:href="#a"/><use xlink:href="#1" y="2.171"/><use xlink:href="#2" y="4.342"/><use xlink:href="#3" y="6.513"/><use xlink:href="#4" y="8.684"/><use xlink:href="#6" y="10.855"/><use xlink:href="#7" y="15.197"/><use xlink:href="#3" y="17.368"/><use xlink:href="#4" y="19.539"/><use xlink:href="#8" y="21.71"/><text y="25.551" class="o">⣆</text></svg><svg x="5538"><use xlink:href="#a"/><use xlink:href="#1" y="2.171"/><use xlink:href="#2" y="4.342"/><use xlink:href="#3" y="6.513"/><use xlink:href="#4" y="8.684"/><use xlink:href="#6" y="10.855"/><use xlink:href="#7" y="15.197"/><use xlink:href="#3" y="17.368"/><use xlink:href="#4" y="19.539"/><use xlink:href="#8" y="21.71"/><text y="25.551" class="o">⡇</text></svg><svg x="5609"><use xlink:href="#a"/><use xlink:href="#1" y="2.171"/><use xlink:href="#2" y="4.342"/><use xlink:href="#3" y="6.513"/><use xlink:href="#4" y="8.684"/><use xlink:href="#6" y="10.855"/><use xlink:href="#7" y="15.197"/><use xlink:href="#3" y="17.368"/><use xlink:href="#4" y="19.539"/><use xlink:href="#8" y="21.71"/><text y="25.551" class="p">⠏</text></svg><svg x="5680"><use xlink:href="#a"/><use xlink:href="#1" y="2.171"/><use xlink:href="#2" y="4.342"/><use xlink:href="#3" y="6.513"/><use xlink:href="#4" y="8.684"/><use xlink:href="#6" y="10.855"/><use xlink:href="#7" y="15.197"/><use xlink:href="#3" y="17.368"/><use xlink:href="#4" y="19.539"/><use xlink:href="#8" y="21.71"/><text y="25.551" class="p">⠛</text></svg><svg x="5751"><use xlink:href="#a"/><use xlink:href="#1" y="2.171"/><use xlink:href="#2" y="4.342"/><use xlink:href="#3" y="6.513"/><use xlink:href="#4" y="8.684"/><use xlink:href="#6" y="10.855"/><use xlink:href="#7" y="15.197"/><use xlink:href="#3" y="17.368"/><use xlink:href="#4" y="19.539"/><use xlink:href="#8" y="21.71"/><text y="25.551" class="q">⠹</text></svg><svg x="5822"><use xlink:href="#a"/><use xlink:href="#1" y="2.171"/><use xlink:href="#2" y="4.342"/><use xlink:href="#3" y="6.513"/><use xlink:href="#4" y="8.684"/><use xlink:href="#6" y="10.855"/><use xlink:href="#7" y="15.197"/><use xlink:href="#3" y="17.368"/><use xlink:href="#4" y="19.539"/><use xlink:href="#8" y="21.71"/><text y="25.551" class="q">⢸</text></svg><svg x="5893"><use xlink:href="#a"/><use xlink:href="#1" y="2.171"/><use xlink:href="#2" y="4.342"/><use xlink:href="#3" y="6.513"/><use xlink:href="#4" y="8.684"/><use xlink:href="#6" y="10.855"/><use xlink:href="#7" y="15.197"/><use xlink:href="#3" y="17.368"/><use xlink:href="#4" y="19.539"/><use xlink:href="#8" y="21.71"/><text y="25.551" class="r">⣰</text></svg><svg x="5964"><use xlink:href="#a"/><use xlink:href="#1" y="2.171"/><use xlink:href="#2" y="4.342"/><use xlink:href="#3" y="6.513"/><use xlink:href="#4" y="8.684"/><use xlink:href="#6" y="10.855"/><use xlink:href="#7" y="15.197"/><use xlink:href="#3" y="17.368"/><use xlink:href="#4" y="19.539"/><use xlink:href="#8" y="21.71"/><text y="25.551" class="r">⣤</text></svg><svg x="6035"><use xlink:href="#a"/><use xlink:href="#1" y="2.171"/><use xlink:href="#2" y="4.342"/><use xlink:href="#3" y="6.513"/><use xlink:href="#4" y="8.684"/><use xlink:href="#6" y="10.855"/><use xlink:href="#7" y="15.197"/><use xlink:href="#3" y="17.368"/><use xlink:href="#4" y="19.539"/><use xlink:href="#8" y="21.71"/><text y="25.551" class="s">⣆</text></svg><svg x="6106"><use xlink:href="#a"/><use xlink:href="#1" y="2.171"/><use xlink:href="#2" y="4.342"/><use xlink:href="#3" y="6.513"/><use xlink:href="#4" y="8.684"/><use xlink:href="#6" y="10.855"/><use xlink:href="#7" y="15.197"/><use xlink:href="#3" y="17.368"/><use xlink:href="#4" y="19.539"/><use xlink:href="#8" y="21.71"/><text y="25.551" class="s">⡇</text></svg><svg x="6177"><use xlink:href="#a"/><use xlink:href="#1" y="2.171"/><use xlink:href="#2" y="4.342"/><use xlink:href="#3" y="6.513"/><use xlink:href="#4" y="8.684"/><use xlink:href="#6" y="10.855"/><use xlink:href="#7" y="15.197"/><use xlink:href="#3" y="17.368"/><use xlink:href="#4" y="19.539"/><use xlink:href="#8" y="21.71"/><text y="25.551" class="t">⠏</text></svg><svg x="6248"><use xlink:href="#a"/><use xlink:href="#1" y="2.171"/><use xlink:href="#2" y="4.342"/><use xlink:href="#3" y="6.513"/><use xlink:href="#4" y="8.684"/><use xlink:href="#6" y="10.855"/><use xlink:href="#7" y="15.197"/><use xlink:href="#3" y="17.368"/><use xlink:href="#4" y="19.539"/><use xlink:href="#8" y="21.71"/><text y="25.551" class="t">⠛</text></svg><svg x="6319"><use xlink:href="#a"/><use xlink:href="#1" y="2.171"/><use xlink:href="#2" y="4.342"/><use xlink:href="#3" y="6.513"/><use xlink:href="#4" y="8.684"/><use xlink:href="#6" y="10.855"/><use xlink:href="#7" y="15.197"/><use xlink:href="#3" y="17.368"/><use xlink:href="#4" y="19.539"/><use xlink:href="#8" y="21.71"/><text y="25.551" class="u">⠹</text></svg><svg x="6390"><use xlink:href="#a"/><use xlink:href="#1" y="2.171"/><use xlink:href="#2" y="4.342"/><use xlink:href="#3" y="6.513"/><use xlink:href="#4" y="8.684"/><use xlink:href="#6" y="10.855"/><use xlink:href="#7" y="15.197"/><use xlink:href="#3" y="17.368"/><use xlink:href="#4" y="19.539"/><use xlink:href="#8" y="21.71"/><text y="25.551" class="u">⢸</text></svg><svg x="6461"><use xlink:href="#a"/><use xlink:href="#1" y="2.171"/><use xlink:href="#2" y="4.342"/><use xlink:href="#3" y="6.513"/><use xlink:href="#4" y="8.684"/><use xlink:href="#6" y="10.855"/><use xlink:href="#7" y="15.197"/><use xlink:href="#3" y="17.368"/><use xlink:href="#4" y="19.539"/><use xlink:href="#8" y="21.71"/><text y="25.551" class="v">⣰</text></svg><svg x="6532"><use xlink:href="#a"/><use xlink:href="#1" y="2.171"/><use xlink:href="#2" y="4.342"/><use xlink:href="#3" y="6.513"/><use xlink:href="#4" y="8.684"/><use xlink:href="#6" y="10.855"/><use xlink:href="#7" y="15.197"/><use xlink:href="#3" y="17.368"/><use xlink:href="#4" y="19.539"/><use xlink:href="#8" y="21.71"/><text y="25.551" class="v">⣤</text></svg><svg x="6603"><use xlink:href="#a"/><use xlink:href="#1" y="2.171"/><use xlink:href="#2" y="4.342"/><use xlink:href="#3" y="6.513"/><use xlink:href="#4" y="8.684"/><use xlink:href="#6" y="10.855"/><use xlink:href="#7" y="15.197"/><use xlink:href="#3" y="17.368"/><use xlink:href="#4" y="19.539"/><use xlink:href="#8" y="21.71"/><text y="25.551" class="w">⣆</text></svg></svg></g></g></svg></svg>